<mxfile host="app.diagrams.net" agent="Mozilla/5.0 (Windows NT 10.0; Win64; x64) AppleWebKit/537.36 (KHTML, like Gecko) Chrome/129.0.0.0 Safari/537.36" version="24.7.17">
  <diagram name="1 oldal" id="lSfbsyQD7-CIHrl2MUZG">
    <mxGraphModel dx="1582" dy="1731" grid="1" gridSize="10" guides="1" tooltips="1" connect="1" arrows="1" fold="1" page="1" pageScale="1" pageWidth="827" pageHeight="1169" math="0" shadow="0">
      <root>
        <mxCell id="0" />
        <mxCell id="1" parent="0" />
        <mxCell id="La-qvgu0-vlTwH9IHwVq-1" value="" style="ellipse;whiteSpace=wrap;html=1;" vertex="1" parent="1">
          <mxGeometry x="60" y="302.5" width="126" height="60" as="geometry" />
        </mxCell>
        <mxCell id="La-qvgu0-vlTwH9IHwVq-2" value="Név" style="ellipse;whiteSpace=wrap;html=1;" vertex="1" parent="1">
          <mxGeometry x="280" y="526.1" width="60" height="25" as="geometry" />
        </mxCell>
        <mxCell id="La-qvgu0-vlTwH9IHwVq-3" value="Cím" style="ellipse;whiteSpace=wrap;html=1;" vertex="1" parent="1">
          <mxGeometry x="74" y="520" width="70" height="40" as="geometry" />
        </mxCell>
        <mxCell id="La-qvgu0-vlTwH9IHwVq-4" value="Csillag" style="ellipse;whiteSpace=wrap;html=1;" vertex="1" parent="1">
          <mxGeometry x="220" y="526.1" width="60" height="31.4" as="geometry" />
        </mxCell>
        <mxCell id="La-qvgu0-vlTwH9IHwVq-5" value="Ekod" style="rhombus;whiteSpace=wrap;html=1;" vertex="1" parent="1">
          <mxGeometry x="10" y="515" width="50" height="50" as="geometry" />
        </mxCell>
        <mxCell id="La-qvgu0-vlTwH9IHwVq-6" value="Varos" style="ellipse;whiteSpace=wrap;html=1;" vertex="1" parent="1">
          <mxGeometry x="144" y="585" width="80" height="40" as="geometry" />
        </mxCell>
        <mxCell id="La-qvgu0-vlTwH9IHwVq-7" value="Utca" style="ellipse;whiteSpace=wrap;html=1;" vertex="1" parent="1">
          <mxGeometry x="74" y="587.5" width="70" height="40" as="geometry" />
        </mxCell>
        <mxCell id="La-qvgu0-vlTwH9IHwVq-8" value="Hazszam" style="ellipse;whiteSpace=wrap;html=1;" vertex="1" parent="1">
          <mxGeometry x="4" y="590" width="70" height="40" as="geometry" />
        </mxCell>
        <mxCell id="La-qvgu0-vlTwH9IHwVq-9" value="Vendéglátás" style="ellipse;whiteSpace=wrap;html=1;" vertex="1" parent="1">
          <mxGeometry x="757.5" y="60" width="175" height="90" as="geometry" />
        </mxCell>
        <mxCell id="La-qvgu0-vlTwH9IHwVq-10" value="" style="endArrow=none;html=1;rounded=0;entryX=0.081;entryY=0.793;entryDx=0;entryDy=0;entryPerimeter=0;exitX=0.588;exitY=-0.025;exitDx=0;exitDy=0;exitPerimeter=0;" edge="1" parent="1" source="La-qvgu0-vlTwH9IHwVq-1" target="La-qvgu0-vlTwH9IHwVq-9">
          <mxGeometry width="50" height="50" relative="1" as="geometry">
            <mxPoint x="340" y="500" as="sourcePoint" />
            <mxPoint x="390" y="450" as="targetPoint" />
            <Array as="points" />
          </mxGeometry>
        </mxCell>
        <mxCell id="La-qvgu0-vlTwH9IHwVq-11" value="" style="endArrow=none;html=1;rounded=0;entryX=0.227;entryY=0.962;entryDx=0;entryDy=0;entryPerimeter=0;exitX=0.371;exitY=0.05;exitDx=0;exitDy=0;exitPerimeter=0;" edge="1" parent="1" source="La-qvgu0-vlTwH9IHwVq-12">
          <mxGeometry width="50" height="50" relative="1" as="geometry">
            <mxPoint x="422.78" y="281.21" as="sourcePoint" />
            <mxPoint x="800.0049999999999" y="147.78999999999994" as="targetPoint" />
          </mxGeometry>
        </mxCell>
        <mxCell id="La-qvgu0-vlTwH9IHwVq-12" value="" style="ellipse;whiteSpace=wrap;html=1;" vertex="1" parent="1">
          <mxGeometry x="452.78" y="306.21" width="105" height="60" as="geometry" />
        </mxCell>
        <mxCell id="La-qvgu0-vlTwH9IHwVq-13" value="Fkod" style="rhombus;whiteSpace=wrap;html=1;" vertex="1" parent="1">
          <mxGeometry x="354" y="510" width="60" height="50" as="geometry" />
        </mxCell>
        <mxCell id="La-qvgu0-vlTwH9IHwVq-14" value="Név" style="ellipse;whiteSpace=wrap;html=1;" vertex="1" parent="1">
          <mxGeometry x="420" y="515" width="70" height="40" as="geometry" />
        </mxCell>
        <mxCell id="La-qvgu0-vlTwH9IHwVq-15" value="Életkor" style="ellipse;whiteSpace=wrap;html=1;" vertex="1" parent="1">
          <mxGeometry x="500" y="515" width="80" height="40" as="geometry" />
        </mxCell>
        <mxCell id="La-qvgu0-vlTwH9IHwVq-16" value="" style="ellipse;whiteSpace=wrap;html=1;" vertex="1" parent="1">
          <mxGeometry x="580" y="497.5" width="110" height="75" as="geometry" />
        </mxCell>
        <mxCell id="La-qvgu0-vlTwH9IHwVq-17" value="Végzettség" style="ellipse;whiteSpace=wrap;html=1;" vertex="1" parent="1">
          <mxGeometry x="590" y="510" width="90" height="50" as="geometry" />
        </mxCell>
        <mxCell id="La-qvgu0-vlTwH9IHwVq-18" value="" style="endArrow=none;html=1;rounded=0;entryX=0.3;entryY=0.9;entryDx=0;entryDy=0;entryPerimeter=0;exitX=0.5;exitY=0;exitDx=0;exitDy=0;" edge="1" parent="1" target="La-qvgu0-vlTwH9IHwVq-12">
          <mxGeometry width="50" height="50" relative="1" as="geometry">
            <mxPoint x="386.77999999999975" y="511.21" as="sourcePoint" />
            <mxPoint x="532.78" y="351.21" as="targetPoint" />
          </mxGeometry>
        </mxCell>
        <mxCell id="La-qvgu0-vlTwH9IHwVq-19" value="" style="endArrow=none;html=1;rounded=0;entryX=0.686;entryY=0.925;entryDx=0;entryDy=0;entryPerimeter=0;exitX=0.371;exitY=0.1;exitDx=0;exitDy=0;exitPerimeter=0;" edge="1" parent="1" target="La-qvgu0-vlTwH9IHwVq-12">
          <mxGeometry width="50" height="50" relative="1" as="geometry">
            <mxPoint x="448.75" y="520.21" as="sourcePoint" />
            <mxPoint x="562.78" y="351.21" as="targetPoint" />
          </mxGeometry>
        </mxCell>
        <mxCell id="La-qvgu0-vlTwH9IHwVq-20" value="" style="endArrow=none;html=1;rounded=0;entryX=0.986;entryY=0.825;entryDx=0;entryDy=0;entryPerimeter=0;exitX=0.313;exitY=0.15;exitDx=0;exitDy=0;exitPerimeter=0;" edge="1" parent="1" target="La-qvgu0-vlTwH9IHwVq-12">
          <mxGeometry width="50" height="50" relative="1" as="geometry">
            <mxPoint x="527.8200000000002" y="522.2099999999998" as="sourcePoint" />
            <mxPoint x="562.78" y="351.21" as="targetPoint" />
          </mxGeometry>
        </mxCell>
        <mxCell id="La-qvgu0-vlTwH9IHwVq-21" value="" style="endArrow=none;html=1;rounded=0;entryX=0.971;entryY=0.275;entryDx=0;entryDy=0;entryPerimeter=0;exitX=0.209;exitY=0.047;exitDx=0;exitDy=0;exitPerimeter=0;" edge="1" parent="1" target="La-qvgu0-vlTwH9IHwVq-12">
          <mxGeometry width="50" height="50" relative="1" as="geometry">
            <mxPoint x="605.77" y="502.23499999999984" as="sourcePoint" />
            <mxPoint x="562.78" y="351.21" as="targetPoint" />
          </mxGeometry>
        </mxCell>
        <mxCell id="La-qvgu0-vlTwH9IHwVq-22" value="" style="endArrow=none;html=1;rounded=0;entryX=0.113;entryY=0.7;entryDx=0;entryDy=0;entryPerimeter=0;exitX=0.5;exitY=0;exitDx=0;exitDy=0;" edge="1" parent="1" source="La-qvgu0-vlTwH9IHwVq-5" target="La-qvgu0-vlTwH9IHwVq-1">
          <mxGeometry width="50" height="50" relative="1" as="geometry">
            <mxPoint x="390" y="400" as="sourcePoint" />
            <mxPoint x="440" y="350" as="targetPoint" />
          </mxGeometry>
        </mxCell>
        <mxCell id="La-qvgu0-vlTwH9IHwVq-23" value="" style="endArrow=none;html=1;rounded=0;entryX=0.275;entryY=1;entryDx=0;entryDy=0;entryPerimeter=0;exitX=0.643;exitY=0.05;exitDx=0;exitDy=0;exitPerimeter=0;" edge="1" parent="1" source="La-qvgu0-vlTwH9IHwVq-3" target="La-qvgu0-vlTwH9IHwVq-1">
          <mxGeometry width="50" height="50" relative="1" as="geometry">
            <mxPoint x="390" y="400" as="sourcePoint" />
            <mxPoint x="440" y="350" as="targetPoint" />
          </mxGeometry>
        </mxCell>
        <mxCell id="La-qvgu0-vlTwH9IHwVq-24" value="" style="endArrow=none;html=1;rounded=0;entryX=0.738;entryY=0.975;entryDx=0;entryDy=0;entryPerimeter=0;exitX=0.263;exitY=0.05;exitDx=0;exitDy=0;exitPerimeter=0;" edge="1" parent="1" source="La-qvgu0-vlTwH9IHwVq-4" target="La-qvgu0-vlTwH9IHwVq-1">
          <mxGeometry width="50" height="50" relative="1" as="geometry">
            <mxPoint x="390" y="400" as="sourcePoint" />
            <mxPoint x="440" y="350" as="targetPoint" />
          </mxGeometry>
        </mxCell>
        <mxCell id="La-qvgu0-vlTwH9IHwVq-25" value="" style="endArrow=none;html=1;rounded=0;entryX=0.975;entryY=0.825;entryDx=0;entryDy=0;entryPerimeter=0;exitX=0.289;exitY=0.1;exitDx=0;exitDy=0;exitPerimeter=0;" edge="1" parent="1" source="La-qvgu0-vlTwH9IHwVq-2" target="La-qvgu0-vlTwH9IHwVq-1">
          <mxGeometry width="50" height="50" relative="1" as="geometry">
            <mxPoint x="390" y="400" as="sourcePoint" />
            <mxPoint x="440" y="350" as="targetPoint" />
          </mxGeometry>
        </mxCell>
        <mxCell id="La-qvgu0-vlTwH9IHwVq-26" value="" style="endArrow=none;html=1;rounded=0;entryX=0.314;entryY=0.9;entryDx=0;entryDy=0;entryPerimeter=0;exitX=0.771;exitY=0.075;exitDx=0;exitDy=0;exitPerimeter=0;" edge="1" parent="1" source="La-qvgu0-vlTwH9IHwVq-8" target="La-qvgu0-vlTwH9IHwVq-3">
          <mxGeometry width="50" height="50" relative="1" as="geometry">
            <mxPoint x="390" y="400" as="sourcePoint" />
            <mxPoint x="440" y="350" as="targetPoint" />
          </mxGeometry>
        </mxCell>
        <mxCell id="La-qvgu0-vlTwH9IHwVq-27" value="" style="endArrow=none;html=1;rounded=0;entryX=0.657;entryY=0.975;entryDx=0;entryDy=0;entryPerimeter=0;exitX=0.671;exitY=0.075;exitDx=0;exitDy=0;exitPerimeter=0;" edge="1" parent="1" source="La-qvgu0-vlTwH9IHwVq-7" target="La-qvgu0-vlTwH9IHwVq-3">
          <mxGeometry width="50" height="50" relative="1" as="geometry">
            <mxPoint x="390" y="400" as="sourcePoint" />
            <mxPoint x="440" y="350" as="targetPoint" />
          </mxGeometry>
        </mxCell>
        <mxCell id="La-qvgu0-vlTwH9IHwVq-28" value="" style="endArrow=none;html=1;rounded=0;entryX=0.971;entryY=0.75;entryDx=0;entryDy=0;entryPerimeter=0;exitX=0.363;exitY=0.025;exitDx=0;exitDy=0;exitPerimeter=0;" edge="1" parent="1" source="La-qvgu0-vlTwH9IHwVq-6" target="La-qvgu0-vlTwH9IHwVq-3">
          <mxGeometry width="50" height="50" relative="1" as="geometry">
            <mxPoint x="390" y="400" as="sourcePoint" />
            <mxPoint x="440" y="350" as="targetPoint" />
          </mxGeometry>
        </mxCell>
        <mxCell id="La-qvgu0-vlTwH9IHwVq-29" value="Főszakács" style="ellipse;whiteSpace=wrap;html=1;" vertex="1" parent="1">
          <mxGeometry x="465" y="315" width="80" height="40" as="geometry" />
        </mxCell>
        <mxCell id="La-qvgu0-vlTwH9IHwVq-30" value="Étterem" style="ellipse;whiteSpace=wrap;html=1;" vertex="1" parent="1">
          <mxGeometry x="82" y="310" width="82" height="45" as="geometry" />
        </mxCell>
        <mxCell id="La-qvgu0-vlTwH9IHwVq-33" value="" style="ellipse;whiteSpace=wrap;html=1;" vertex="1" parent="1">
          <mxGeometry x="795" y="296.25" width="100" height="52.5" as="geometry" />
        </mxCell>
        <mxCell id="La-qvgu0-vlTwH9IHwVq-34" value="Vendég" style="ellipse;whiteSpace=wrap;html=1;" vertex="1" parent="1">
          <mxGeometry x="800" y="302.5" width="90" height="40" as="geometry" />
        </mxCell>
        <mxCell id="La-qvgu0-vlTwH9IHwVq-35" value="Név" style="ellipse;whiteSpace=wrap;html=1;" vertex="1" parent="1">
          <mxGeometry x="770" y="520" width="80" height="31.87" as="geometry" />
        </mxCell>
        <mxCell id="La-qvgu0-vlTwH9IHwVq-37" value="Életkor" style="ellipse;whiteSpace=wrap;html=1;" vertex="1" parent="1">
          <mxGeometry x="860" y="515.93" width="90" height="35.94" as="geometry" />
        </mxCell>
        <mxCell id="La-qvgu0-vlTwH9IHwVq-38" value="Cím" style="ellipse;whiteSpace=wrap;html=1;" vertex="1" parent="1">
          <mxGeometry x="960" y="512.5" width="80" height="45" as="geometry" />
        </mxCell>
        <mxCell id="La-qvgu0-vlTwH9IHwVq-39" value="Vkód" style="rhombus;whiteSpace=wrap;html=1;" vertex="1" parent="1">
          <mxGeometry x="710" y="510" width="60" height="50" as="geometry" />
        </mxCell>
        <mxCell id="La-qvgu0-vlTwH9IHwVq-42" value="Város" style="ellipse;whiteSpace=wrap;html=1;" vertex="1" parent="1">
          <mxGeometry x="880" y="610" width="100" height="50" as="geometry" />
        </mxCell>
        <mxCell id="La-qvgu0-vlTwH9IHwVq-43" value="Utca" style="ellipse;whiteSpace=wrap;html=1;" vertex="1" parent="1">
          <mxGeometry x="980" y="610" width="90" height="50" as="geometry" />
        </mxCell>
        <mxCell id="La-qvgu0-vlTwH9IHwVq-44" value="Házszám" style="ellipse;whiteSpace=wrap;html=1;" vertex="1" parent="1">
          <mxGeometry x="1080" y="610" width="90" height="50" as="geometry" />
        </mxCell>
        <mxCell id="La-qvgu0-vlTwH9IHwVq-45" value="" style="endArrow=none;html=1;rounded=0;entryX=0.253;entryY=0.979;entryDx=0;entryDy=0;entryPerimeter=0;exitX=0.5;exitY=0;exitDx=0;exitDy=0;" edge="1" parent="1" source="La-qvgu0-vlTwH9IHwVq-39" target="La-qvgu0-vlTwH9IHwVq-33">
          <mxGeometry width="50" height="50" relative="1" as="geometry">
            <mxPoint x="810" y="380" as="sourcePoint" />
            <mxPoint x="860" y="330" as="targetPoint" />
          </mxGeometry>
        </mxCell>
        <mxCell id="La-qvgu0-vlTwH9IHwVq-46" value="" style="endArrow=none;html=1;rounded=0;entryX=0.653;entryY=1.005;entryDx=0;entryDy=0;entryPerimeter=0;exitX=0.679;exitY=0.073;exitDx=0;exitDy=0;exitPerimeter=0;" edge="1" parent="1" source="La-qvgu0-vlTwH9IHwVq-35" target="La-qvgu0-vlTwH9IHwVq-33">
          <mxGeometry width="50" height="50" relative="1" as="geometry">
            <mxPoint x="810" y="380" as="sourcePoint" />
            <mxPoint x="860" y="330" as="targetPoint" />
          </mxGeometry>
        </mxCell>
        <mxCell id="La-qvgu0-vlTwH9IHwVq-47" value="" style="endArrow=none;html=1;rounded=0;entryX=0.76;entryY=0.979;entryDx=0;entryDy=0;entryPerimeter=0;exitX=0.641;exitY=-0.007;exitDx=0;exitDy=0;exitPerimeter=0;" edge="1" parent="1" source="La-qvgu0-vlTwH9IHwVq-37" target="La-qvgu0-vlTwH9IHwVq-33">
          <mxGeometry width="50" height="50" relative="1" as="geometry">
            <mxPoint x="810" y="380" as="sourcePoint" />
            <mxPoint x="860" y="330" as="targetPoint" />
          </mxGeometry>
        </mxCell>
        <mxCell id="La-qvgu0-vlTwH9IHwVq-48" value="" style="endArrow=none;html=1;rounded=0;entryX=0.947;entryY=0.802;entryDx=0;entryDy=0;entryPerimeter=0;exitX=0.388;exitY=-0.019;exitDx=0;exitDy=0;exitPerimeter=0;" edge="1" parent="1" source="La-qvgu0-vlTwH9IHwVq-38" target="La-qvgu0-vlTwH9IHwVq-33">
          <mxGeometry width="50" height="50" relative="1" as="geometry">
            <mxPoint x="810" y="380" as="sourcePoint" />
            <mxPoint x="860" y="330" as="targetPoint" />
          </mxGeometry>
        </mxCell>
        <mxCell id="La-qvgu0-vlTwH9IHwVq-49" value="" style="endArrow=none;html=1;rounded=0;entryX=0.304;entryY=0.93;entryDx=0;entryDy=0;entryPerimeter=0;exitX=0.723;exitY=0.007;exitDx=0;exitDy=0;exitPerimeter=0;" edge="1" parent="1" source="La-qvgu0-vlTwH9IHwVq-42" target="La-qvgu0-vlTwH9IHwVq-38">
          <mxGeometry width="50" height="50" relative="1" as="geometry">
            <mxPoint x="810" y="380" as="sourcePoint" />
            <mxPoint x="860" y="330" as="targetPoint" />
          </mxGeometry>
        </mxCell>
        <mxCell id="La-qvgu0-vlTwH9IHwVq-50" value="" style="endArrow=none;html=1;rounded=0;entryX=0.654;entryY=1.019;entryDx=0;entryDy=0;entryPerimeter=0;exitX=0.33;exitY=0.113;exitDx=0;exitDy=0;exitPerimeter=0;" edge="1" parent="1" source="La-qvgu0-vlTwH9IHwVq-43" target="La-qvgu0-vlTwH9IHwVq-38">
          <mxGeometry width="50" height="50" relative="1" as="geometry">
            <mxPoint x="810" y="380" as="sourcePoint" />
            <mxPoint x="860" y="330" as="targetPoint" />
          </mxGeometry>
        </mxCell>
        <mxCell id="La-qvgu0-vlTwH9IHwVq-51" value="" style="endArrow=none;html=1;rounded=0;entryX=1.004;entryY=0.752;entryDx=0;entryDy=0;entryPerimeter=0;exitX=0.315;exitY=0.14;exitDx=0;exitDy=0;exitPerimeter=0;" edge="1" parent="1" source="La-qvgu0-vlTwH9IHwVq-44" target="La-qvgu0-vlTwH9IHwVq-38">
          <mxGeometry width="50" height="50" relative="1" as="geometry">
            <mxPoint x="810" y="380" as="sourcePoint" />
            <mxPoint x="860" y="330" as="targetPoint" />
          </mxGeometry>
        </mxCell>
        <mxCell id="La-qvgu0-vlTwH9IHwVq-52" value="" style="endArrow=none;html=1;rounded=0;entryX=0.556;entryY=0.98;entryDx=0;entryDy=0;entryPerimeter=0;exitX=0.667;exitY=-0.011;exitDx=0;exitDy=0;exitPerimeter=0;" edge="1" parent="1" source="La-qvgu0-vlTwH9IHwVq-33" target="La-qvgu0-vlTwH9IHwVq-9">
          <mxGeometry width="50" height="50" relative="1" as="geometry">
            <mxPoint x="810" y="380" as="sourcePoint" />
            <mxPoint x="860" y="330" as="targetPoint" />
          </mxGeometry>
        </mxCell>
        <mxCell id="La-qvgu0-vlTwH9IHwVq-53" value="" style="ellipse;whiteSpace=wrap;html=1;" vertex="1" parent="1">
          <mxGeometry x="1230" y="291.25" width="120" height="62.5" as="geometry" />
        </mxCell>
        <mxCell id="La-qvgu0-vlTwH9IHwVq-54" value="Szakács" style="ellipse;whiteSpace=wrap;html=1;" vertex="1" parent="1">
          <mxGeometry x="1245" y="298.75" width="90" height="50" as="geometry" />
        </mxCell>
        <mxCell id="La-qvgu0-vlTwH9IHwVq-55" value="" style="endArrow=none;html=1;rounded=0;entryX=0.94;entryY=0.776;entryDx=0;entryDy=0;entryPerimeter=0;exitX=0.25;exitY=0.016;exitDx=0;exitDy=0;exitPerimeter=0;" edge="1" parent="1" source="La-qvgu0-vlTwH9IHwVq-53" target="La-qvgu0-vlTwH9IHwVq-9">
          <mxGeometry width="50" height="50" relative="1" as="geometry">
            <mxPoint x="1060" y="300" as="sourcePoint" />
            <mxPoint x="1110" y="250" as="targetPoint" />
          </mxGeometry>
        </mxCell>
        <mxCell id="La-qvgu0-vlTwH9IHwVq-56" value="Név" style="ellipse;whiteSpace=wrap;html=1;" vertex="1" parent="1">
          <mxGeometry x="1196" y="510" width="90" height="41.1" as="geometry" />
        </mxCell>
        <mxCell id="La-qvgu0-vlTwH9IHwVq-57" value="Részleg" style="ellipse;whiteSpace=wrap;html=1;" vertex="1" parent="1">
          <mxGeometry x="1300" y="511.67" width="90" height="44.45" as="geometry" />
        </mxCell>
        <mxCell id="La-qvgu0-vlTwH9IHwVq-58" value="Végzettség" style="ellipse;whiteSpace=wrap;html=1;" vertex="1" parent="1">
          <mxGeometry x="1410" y="512.5" width="80" height="40" as="geometry" />
        </mxCell>
        <mxCell id="La-qvgu0-vlTwH9IHwVq-59" value="Szkód" style="rhombus;whiteSpace=wrap;html=1;" vertex="1" parent="1">
          <mxGeometry x="1110" y="502.5" width="70" height="60" as="geometry" />
        </mxCell>
        <mxCell id="La-qvgu0-vlTwH9IHwVq-60" value="" style="endArrow=none;html=1;rounded=0;entryX=0.071;entryY=0.693;entryDx=0;entryDy=0;entryPerimeter=0;exitX=0.5;exitY=0;exitDx=0;exitDy=0;" edge="1" parent="1" source="La-qvgu0-vlTwH9IHwVq-59" target="La-qvgu0-vlTwH9IHwVq-53">
          <mxGeometry width="50" height="50" relative="1" as="geometry">
            <mxPoint x="1060" y="530" as="sourcePoint" />
            <mxPoint x="1110" y="480" as="targetPoint" />
          </mxGeometry>
        </mxCell>
        <mxCell id="La-qvgu0-vlTwH9IHwVq-61" value="" style="endArrow=none;html=1;rounded=0;entryX=0.286;entryY=0.938;entryDx=0;entryDy=0;entryPerimeter=0;exitX=0.642;exitY=0.054;exitDx=0;exitDy=0;exitPerimeter=0;" edge="1" parent="1" source="La-qvgu0-vlTwH9IHwVq-56" target="La-qvgu0-vlTwH9IHwVq-53">
          <mxGeometry width="50" height="50" relative="1" as="geometry">
            <mxPoint x="1060" y="530" as="sourcePoint" />
            <mxPoint x="1110" y="480" as="targetPoint" />
          </mxGeometry>
        </mxCell>
        <mxCell id="La-qvgu0-vlTwH9IHwVq-62" value="" style="endArrow=none;html=1;rounded=0;entryX=0.637;entryY=0.013;entryDx=0;entryDy=0;entryPerimeter=0;exitX=0.688;exitY=0.995;exitDx=0;exitDy=0;exitPerimeter=0;" edge="1" parent="1" source="La-qvgu0-vlTwH9IHwVq-53" target="La-qvgu0-vlTwH9IHwVq-57">
          <mxGeometry width="50" height="50" relative="1" as="geometry">
            <mxPoint x="1060" y="530" as="sourcePoint" />
            <mxPoint x="1110" y="480" as="targetPoint" />
          </mxGeometry>
        </mxCell>
        <mxCell id="La-qvgu0-vlTwH9IHwVq-63" value="" style="endArrow=none;html=1;rounded=0;entryX=0.943;entryY=0.75;entryDx=0;entryDy=0;entryPerimeter=0;exitX=0.415;exitY=0.14;exitDx=0;exitDy=0;exitPerimeter=0;" edge="1" parent="1" source="La-qvgu0-vlTwH9IHwVq-58" target="La-qvgu0-vlTwH9IHwVq-53">
          <mxGeometry width="50" height="50" relative="1" as="geometry">
            <mxPoint x="1060" y="530" as="sourcePoint" />
            <mxPoint x="1110" y="480" as="targetPoint" />
          </mxGeometry>
        </mxCell>
        <mxCell id="La-qvgu0-vlTwH9IHwVq-64" value="" style="ellipse;whiteSpace=wrap;html=1;" vertex="1" parent="1">
          <mxGeometry x="1640" y="295" width="120" height="80" as="geometry" />
        </mxCell>
        <mxCell id="La-qvgu0-vlTwH9IHwVq-65" value="" style="endArrow=none;html=1;rounded=0;entryX=1;entryY=0.5;entryDx=0;entryDy=0;exitX=0;exitY=0;exitDx=0;exitDy=0;" edge="1" parent="1" source="La-qvgu0-vlTwH9IHwVq-64" target="La-qvgu0-vlTwH9IHwVq-9">
          <mxGeometry width="50" height="50" relative="1" as="geometry">
            <mxPoint x="1160" y="730" as="sourcePoint" />
            <mxPoint x="1210" y="680" as="targetPoint" />
          </mxGeometry>
        </mxCell>
        <mxCell id="La-qvgu0-vlTwH9IHwVq-66" value="Gyakornok" style="ellipse;whiteSpace=wrap;html=1;" vertex="1" parent="1">
          <mxGeometry x="1655" y="311.21" width="90" height="50" as="geometry" />
        </mxCell>
        <mxCell id="La-qvgu0-vlTwH9IHwVq-67" value="Név" style="ellipse;whiteSpace=wrap;html=1;" vertex="1" parent="1">
          <mxGeometry x="1630" y="502.5" width="90" height="52.5" as="geometry" />
        </mxCell>
        <mxCell id="La-qvgu0-vlTwH9IHwVq-68" value="Gyakorlat" style="ellipse;whiteSpace=wrap;html=1;" vertex="1" parent="1">
          <mxGeometry x="1730" y="501.87" width="90" height="50" as="geometry" />
        </mxCell>
        <mxCell id="La-qvgu0-vlTwH9IHwVq-69" value="" style="ellipse;whiteSpace=wrap;html=1;" vertex="1" parent="1">
          <mxGeometry x="1830" y="502.5" width="90" height="50" as="geometry" />
        </mxCell>
        <mxCell id="La-qvgu0-vlTwH9IHwVq-70" value="Gykód" style="rhombus;whiteSpace=wrap;html=1;" vertex="1" parent="1">
          <mxGeometry x="1550" y="495" width="70" height="70" as="geometry" />
        </mxCell>
        <mxCell id="La-qvgu0-vlTwH9IHwVq-71" value="Műszak" style="ellipse;whiteSpace=wrap;html=1;" vertex="1" parent="1">
          <mxGeometry x="1845" y="509.38" width="60" height="36.25" as="geometry" />
        </mxCell>
        <mxCell id="La-qvgu0-vlTwH9IHwVq-72" value="" style="endArrow=none;html=1;rounded=0;entryX=0;entryY=1;entryDx=0;entryDy=0;exitX=0.5;exitY=0;exitDx=0;exitDy=0;" edge="1" parent="1" source="La-qvgu0-vlTwH9IHwVq-70" target="La-qvgu0-vlTwH9IHwVq-64">
          <mxGeometry width="50" height="50" relative="1" as="geometry">
            <mxPoint x="1630" y="540" as="sourcePoint" />
            <mxPoint x="1680" y="490" as="targetPoint" />
          </mxGeometry>
        </mxCell>
        <mxCell id="La-qvgu0-vlTwH9IHwVq-73" value="" style="endArrow=none;html=1;rounded=0;entryX=0.376;entryY=0.979;entryDx=0;entryDy=0;entryPerimeter=0;" edge="1" parent="1" target="La-qvgu0-vlTwH9IHwVq-64">
          <mxGeometry width="50" height="50" relative="1" as="geometry">
            <mxPoint x="1670" y="500" as="sourcePoint" />
            <mxPoint x="1680" y="490" as="targetPoint" />
          </mxGeometry>
        </mxCell>
        <mxCell id="La-qvgu0-vlTwH9IHwVq-74" value="" style="endArrow=none;html=1;rounded=0;entryX=0.69;entryY=0.96;entryDx=0;entryDy=0;entryPerimeter=0;exitX=0.432;exitY=-0.033;exitDx=0;exitDy=0;exitPerimeter=0;" edge="1" parent="1" source="La-qvgu0-vlTwH9IHwVq-68" target="La-qvgu0-vlTwH9IHwVq-64">
          <mxGeometry width="50" height="50" relative="1" as="geometry">
            <mxPoint x="1630" y="540" as="sourcePoint" />
            <mxPoint x="1680" y="490" as="targetPoint" />
          </mxGeometry>
        </mxCell>
        <mxCell id="La-qvgu0-vlTwH9IHwVq-75" value="" style="endArrow=none;html=1;rounded=0;entryX=0.94;entryY=0.796;entryDx=0;entryDy=0;entryPerimeter=0;exitX=0.415;exitY=-0.03;exitDx=0;exitDy=0;exitPerimeter=0;" edge="1" parent="1" source="La-qvgu0-vlTwH9IHwVq-69" target="La-qvgu0-vlTwH9IHwVq-64">
          <mxGeometry width="50" height="50" relative="1" as="geometry">
            <mxPoint x="1630" y="540" as="sourcePoint" />
            <mxPoint x="1680" y="490" as="targetPoint" />
          </mxGeometry>
        </mxCell>
        <mxCell id="La-qvgu0-vlTwH9IHwVq-76" value="Kezdete" style="ellipse;whiteSpace=wrap;html=1;" vertex="1" parent="1">
          <mxGeometry x="1680" y="590" width="90" height="50" as="geometry" />
        </mxCell>
        <mxCell id="La-qvgu0-vlTwH9IHwVq-77" value="Időtartama" style="ellipse;whiteSpace=wrap;html=1;" vertex="1" parent="1">
          <mxGeometry x="1780" y="587.5" width="90" height="55" as="geometry" />
        </mxCell>
        <mxCell id="La-qvgu0-vlTwH9IHwVq-78" value="" style="endArrow=none;html=1;rounded=0;entryX=0.398;entryY=0.983;entryDx=0;entryDy=0;entryPerimeter=0;exitX=0.5;exitY=0;exitDx=0;exitDy=0;" edge="1" parent="1" source="La-qvgu0-vlTwH9IHwVq-76" target="La-qvgu0-vlTwH9IHwVq-68">
          <mxGeometry width="50" height="50" relative="1" as="geometry">
            <mxPoint x="1630" y="540" as="sourcePoint" />
            <mxPoint x="1680" y="490" as="targetPoint" />
          </mxGeometry>
        </mxCell>
        <mxCell id="La-qvgu0-vlTwH9IHwVq-79" value="" style="endArrow=none;html=1;rounded=0;entryX=0.74;entryY=0.936;entryDx=0;entryDy=0;entryPerimeter=0;exitX=0.5;exitY=0;exitDx=0;exitDy=0;" edge="1" parent="1" source="La-qvgu0-vlTwH9IHwVq-77" target="La-qvgu0-vlTwH9IHwVq-68">
          <mxGeometry width="50" height="50" relative="1" as="geometry">
            <mxPoint x="1630" y="540" as="sourcePoint" />
            <mxPoint x="1680" y="490" as="targetPoint" />
          </mxGeometry>
        </mxCell>
        <mxCell id="La-qvgu0-vlTwH9IHwVq-80" value="Rendelés" style="rhombus;whiteSpace=wrap;html=1;" vertex="1" parent="1">
          <mxGeometry x="1010" y="348.75" width="70" height="61.25" as="geometry" />
        </mxCell>
        <mxCell id="La-qvgu0-vlTwH9IHwVq-81" value="Összeg" style="ellipse;whiteSpace=wrap;html=1;" vertex="1" parent="1">
          <mxGeometry x="955" y="416.25" width="90" height="50" as="geometry" />
        </mxCell>
        <mxCell id="La-qvgu0-vlTwH9IHwVq-82" value="Étel" style="ellipse;whiteSpace=wrap;html=1;" vertex="1" parent="1">
          <mxGeometry x="1050" y="416.25" width="90" height="50" as="geometry" />
        </mxCell>
        <mxCell id="La-qvgu0-vlTwH9IHwVq-83" value="" style="endArrow=none;html=1;rounded=0;entryX=0;entryY=0.5;entryDx=0;entryDy=0;exitX=0.5;exitY=0;exitDx=0;exitDy=0;" edge="1" parent="1" source="La-qvgu0-vlTwH9IHwVq-81" target="La-qvgu0-vlTwH9IHwVq-80">
          <mxGeometry width="50" height="50" relative="1" as="geometry">
            <mxPoint x="1020" y="580" as="sourcePoint" />
            <mxPoint x="1070" y="530" as="targetPoint" />
          </mxGeometry>
        </mxCell>
        <mxCell id="La-qvgu0-vlTwH9IHwVq-84" value="" style="endArrow=none;html=1;rounded=0;entryX=1;entryY=0.5;entryDx=0;entryDy=0;exitX=0.5;exitY=0;exitDx=0;exitDy=0;" edge="1" parent="1" source="La-qvgu0-vlTwH9IHwVq-82" target="La-qvgu0-vlTwH9IHwVq-80">
          <mxGeometry width="50" height="50" relative="1" as="geometry">
            <mxPoint x="1020" y="580" as="sourcePoint" />
            <mxPoint x="1070" y="530" as="targetPoint" />
          </mxGeometry>
        </mxCell>
        <mxCell id="La-qvgu0-vlTwH9IHwVq-85" value="" style="endArrow=none;html=1;rounded=0;entryX=0.981;entryY=0.372;entryDx=0;entryDy=0;entryPerimeter=0;exitX=0.5;exitY=0;exitDx=0;exitDy=0;" edge="1" parent="1" source="La-qvgu0-vlTwH9IHwVq-80" target="La-qvgu0-vlTwH9IHwVq-33">
          <mxGeometry width="50" height="50" relative="1" as="geometry">
            <mxPoint x="1020" y="580" as="sourcePoint" />
            <mxPoint x="1070" y="530" as="targetPoint" />
          </mxGeometry>
        </mxCell>
        <mxCell id="La-qvgu0-vlTwH9IHwVq-86" value="E_F" style="rhombus;whiteSpace=wrap;html=1;" vertex="1" parent="1">
          <mxGeometry x="620" y="401.25" width="80" height="80" as="geometry" />
        </mxCell>
        <mxCell id="La-qvgu0-vlTwH9IHwVq-87" value="" style="endArrow=none;html=1;rounded=0;entryX=0.925;entryY=0.212;entryDx=0;entryDy=0;entryPerimeter=0;exitX=0.5;exitY=0;exitDx=0;exitDy=0;" edge="1" parent="1" source="La-qvgu0-vlTwH9IHwVq-86" target="La-qvgu0-vlTwH9IHwVq-12">
          <mxGeometry width="50" height="50" relative="1" as="geometry">
            <mxPoint x="680" y="580" as="sourcePoint" />
            <mxPoint x="730" y="530" as="targetPoint" />
          </mxGeometry>
        </mxCell>
        <mxCell id="La-qvgu0-vlTwH9IHwVq-88" value="E_Sz" style="rhombus;whiteSpace=wrap;html=1;" vertex="1" parent="1">
          <mxGeometry x="1440" y="375" width="80" height="80" as="geometry" />
        </mxCell>
        <mxCell id="La-qvgu0-vlTwH9IHwVq-89" value="" style="endArrow=none;html=1;rounded=0;entryX=1;entryY=0.5;entryDx=0;entryDy=0;exitX=0.5;exitY=0;exitDx=0;exitDy=0;" edge="1" parent="1" source="La-qvgu0-vlTwH9IHwVq-88" target="La-qvgu0-vlTwH9IHwVq-53">
          <mxGeometry width="50" height="50" relative="1" as="geometry">
            <mxPoint x="1620" y="340" as="sourcePoint" />
            <mxPoint x="1670" y="290" as="targetPoint" />
          </mxGeometry>
        </mxCell>
        <mxCell id="La-qvgu0-vlTwH9IHwVq-90" value="E_Gy" style="rhombus;whiteSpace=wrap;html=1;" vertex="1" parent="1">
          <mxGeometry x="1940" y="488.75" width="80" height="80" as="geometry" />
        </mxCell>
        <mxCell id="La-qvgu0-vlTwH9IHwVq-91" value="" style="endArrow=none;html=1;rounded=0;entryX=1.004;entryY=0.655;entryDx=0;entryDy=0;entryPerimeter=0;exitX=0.5;exitY=0;exitDx=0;exitDy=0;" edge="1" parent="1" source="La-qvgu0-vlTwH9IHwVq-90" target="La-qvgu0-vlTwH9IHwVq-64">
          <mxGeometry width="50" height="50" relative="1" as="geometry">
            <mxPoint x="1740" y="470" as="sourcePoint" />
            <mxPoint x="1790" y="420" as="targetPoint" />
          </mxGeometry>
        </mxCell>
        <mxCell id="La-qvgu0-vlTwH9IHwVq-102" value="" style="rounded=0;whiteSpace=wrap;html=1;direction=south;" vertex="1" parent="1">
          <mxGeometry x="31" y="670" width="39" height="70" as="geometry" />
        </mxCell>
        <mxCell id="La-qvgu0-vlTwH9IHwVq-103" value="" style="rounded=0;whiteSpace=wrap;html=1;direction=south;" vertex="1" parent="1">
          <mxGeometry x="89" y="670" width="41" height="70" as="geometry" />
        </mxCell>
        <mxCell id="La-qvgu0-vlTwH9IHwVq-104" value="" style="rounded=0;whiteSpace=wrap;html=1;direction=south;" vertex="1" parent="1">
          <mxGeometry x="164" y="670" width="40" height="70" as="geometry" />
        </mxCell>
        <mxCell id="La-qvgu0-vlTwH9IHwVq-105" value="" style="rounded=0;whiteSpace=wrap;html=1;direction=south;" vertex="1" parent="1">
          <mxGeometry x="290" y="600" width="40" height="80" as="geometry" />
        </mxCell>
        <mxCell id="La-qvgu0-vlTwH9IHwVq-106" value="" style="rounded=0;whiteSpace=wrap;html=1;direction=south;" vertex="1" parent="1">
          <mxGeometry x="230" y="600" width="40" height="80" as="geometry" />
        </mxCell>
        <mxCell id="La-qvgu0-vlTwH9IHwVq-107" value="" style="rounded=0;whiteSpace=wrap;html=1;direction=south;" vertex="1" parent="1">
          <mxGeometry x="435" y="620" width="40" height="80" as="geometry" />
        </mxCell>
        <mxCell id="La-qvgu0-vlTwH9IHwVq-108" value="" style="rounded=0;whiteSpace=wrap;html=1;direction=south;" vertex="1" parent="1">
          <mxGeometry x="520" y="620" width="40" height="80" as="geometry" />
        </mxCell>
        <mxCell id="La-qvgu0-vlTwH9IHwVq-109" value="" style="rounded=0;whiteSpace=wrap;html=1;direction=south;" vertex="1" parent="1">
          <mxGeometry x="620" y="620" width="40" height="80" as="geometry" />
        </mxCell>
        <mxCell id="La-qvgu0-vlTwH9IHwVq-110" value="" style="rounded=0;whiteSpace=wrap;html=1;direction=south;" vertex="1" parent="1">
          <mxGeometry x="790" y="600" width="40" height="80" as="geometry" />
        </mxCell>
        <mxCell id="La-qvgu0-vlTwH9IHwVq-111" value="" style="rounded=0;whiteSpace=wrap;html=1;direction=south;" vertex="1" parent="1">
          <mxGeometry x="840" y="600" width="40" height="80" as="geometry" />
        </mxCell>
        <mxCell id="La-qvgu0-vlTwH9IHwVq-112" value="" style="rounded=0;whiteSpace=wrap;html=1;direction=south;" vertex="1" parent="1">
          <mxGeometry x="915" y="710" width="40" height="80" as="geometry" />
        </mxCell>
        <mxCell id="La-qvgu0-vlTwH9IHwVq-113" value="" style="rounded=0;whiteSpace=wrap;html=1;direction=south;" vertex="1" parent="1">
          <mxGeometry x="1000" y="710" width="40" height="80" as="geometry" />
        </mxCell>
        <mxCell id="La-qvgu0-vlTwH9IHwVq-114" value="" style="rounded=0;whiteSpace=wrap;html=1;direction=south;" vertex="1" parent="1">
          <mxGeometry x="1105" y="700" width="40" height="80" as="geometry" />
        </mxCell>
        <mxCell id="La-qvgu0-vlTwH9IHwVq-115" value="" style="rounded=0;whiteSpace=wrap;html=1;direction=south;" vertex="1" parent="1">
          <mxGeometry x="1221" y="610" width="40" height="80" as="geometry" />
        </mxCell>
        <mxCell id="La-qvgu0-vlTwH9IHwVq-116" value="" style="rounded=0;whiteSpace=wrap;html=1;direction=south;" vertex="1" parent="1">
          <mxGeometry x="1325" y="610" width="40" height="80" as="geometry" />
        </mxCell>
        <mxCell id="La-qvgu0-vlTwH9IHwVq-117" value="" style="rounded=0;whiteSpace=wrap;html=1;direction=south;" vertex="1" parent="1">
          <mxGeometry x="1430" y="620" width="40" height="80" as="geometry" />
        </mxCell>
        <mxCell id="La-qvgu0-vlTwH9IHwVq-118" value="" style="rounded=0;whiteSpace=wrap;html=1;direction=south;" vertex="1" parent="1">
          <mxGeometry x="1615" y="610" width="40" height="80" as="geometry" />
        </mxCell>
        <mxCell id="La-qvgu0-vlTwH9IHwVq-119" value="" style="rounded=0;whiteSpace=wrap;html=1;direction=south;" vertex="1" parent="1">
          <mxGeometry x="1705" y="690" width="40" height="80" as="geometry" />
        </mxCell>
        <mxCell id="La-qvgu0-vlTwH9IHwVq-120" value="" style="rounded=0;whiteSpace=wrap;html=1;direction=south;" vertex="1" parent="1">
          <mxGeometry x="1810" y="690" width="40" height="80" as="geometry" />
        </mxCell>
        <mxCell id="La-qvgu0-vlTwH9IHwVq-121" value="" style="rounded=0;whiteSpace=wrap;html=1;direction=south;" vertex="1" parent="1">
          <mxGeometry x="1890" y="625" width="40" height="80" as="geometry" />
        </mxCell>
        <mxCell id="La-qvgu0-vlTwH9IHwVq-122" value="" style="endArrow=none;html=1;rounded=0;entryX=0.5;entryY=1;entryDx=0;entryDy=0;exitX=0;exitY=0.75;exitDx=0;exitDy=0;" edge="1" parent="1" source="La-qvgu0-vlTwH9IHwVq-121" target="La-qvgu0-vlTwH9IHwVq-69">
          <mxGeometry width="50" height="50" relative="1" as="geometry">
            <mxPoint x="1790" y="720" as="sourcePoint" />
            <mxPoint x="1840" y="670" as="targetPoint" />
          </mxGeometry>
        </mxCell>
        <mxCell id="La-qvgu0-vlTwH9IHwVq-123" value="" style="endArrow=none;html=1;rounded=0;entryX=0.5;entryY=1;entryDx=0;entryDy=0;exitX=0;exitY=0.5;exitDx=0;exitDy=0;" edge="1" parent="1" source="La-qvgu0-vlTwH9IHwVq-120" target="La-qvgu0-vlTwH9IHwVq-77">
          <mxGeometry width="50" height="50" relative="1" as="geometry">
            <mxPoint x="1910" y="635" as="sourcePoint" />
            <mxPoint x="1885" y="563" as="targetPoint" />
          </mxGeometry>
        </mxCell>
        <mxCell id="La-qvgu0-vlTwH9IHwVq-124" value="" style="endArrow=none;html=1;rounded=0;entryX=0.581;entryY=0.924;entryDx=0;entryDy=0;exitX=0;exitY=0.5;exitDx=0;exitDy=0;entryPerimeter=0;" edge="1" parent="1" source="La-qvgu0-vlTwH9IHwVq-119" target="La-qvgu0-vlTwH9IHwVq-76">
          <mxGeometry width="50" height="50" relative="1" as="geometry">
            <mxPoint x="1920" y="645" as="sourcePoint" />
            <mxPoint x="1895" y="573" as="targetPoint" />
          </mxGeometry>
        </mxCell>
        <mxCell id="La-qvgu0-vlTwH9IHwVq-125" value="" style="endArrow=none;html=1;rounded=0;entryX=0.372;entryY=0.939;entryDx=0;entryDy=0;exitX=0;exitY=0.5;exitDx=0;exitDy=0;entryPerimeter=0;" edge="1" parent="1" source="La-qvgu0-vlTwH9IHwVq-118" target="La-qvgu0-vlTwH9IHwVq-67">
          <mxGeometry width="50" height="50" relative="1" as="geometry">
            <mxPoint x="1735" y="700" as="sourcePoint" />
            <mxPoint x="1742" y="646" as="targetPoint" />
          </mxGeometry>
        </mxCell>
        <mxCell id="La-qvgu0-vlTwH9IHwVq-126" value="" style="endArrow=none;html=1;rounded=0;entryX=0.375;entryY=0.938;entryDx=0;entryDy=0;exitX=0;exitY=0.5;exitDx=0;exitDy=0;entryPerimeter=0;" edge="1" parent="1" source="La-qvgu0-vlTwH9IHwVq-117" target="La-qvgu0-vlTwH9IHwVq-58">
          <mxGeometry width="50" height="50" relative="1" as="geometry">
            <mxPoint x="1645" y="620" as="sourcePoint" />
            <mxPoint x="1673" y="562" as="targetPoint" />
          </mxGeometry>
        </mxCell>
        <mxCell id="La-qvgu0-vlTwH9IHwVq-127" value="" style="endArrow=none;html=1;rounded=0;entryX=0.421;entryY=1.052;entryDx=0;entryDy=0;exitX=0;exitY=0.5;exitDx=0;exitDy=0;entryPerimeter=0;" edge="1" parent="1" source="La-qvgu0-vlTwH9IHwVq-116" target="La-qvgu0-vlTwH9IHwVq-57">
          <mxGeometry width="50" height="50" relative="1" as="geometry">
            <mxPoint x="1460" y="630" as="sourcePoint" />
            <mxPoint x="1450" y="560" as="targetPoint" />
          </mxGeometry>
        </mxCell>
        <mxCell id="La-qvgu0-vlTwH9IHwVq-128" value="" style="endArrow=none;html=1;rounded=0;entryX=0.614;entryY=1.071;entryDx=0;entryDy=0;exitX=0;exitY=0.5;exitDx=0;exitDy=0;entryPerimeter=0;" edge="1" parent="1" source="La-qvgu0-vlTwH9IHwVq-115" target="La-qvgu0-vlTwH9IHwVq-56">
          <mxGeometry width="50" height="50" relative="1" as="geometry">
            <mxPoint x="1470" y="640" as="sourcePoint" />
            <mxPoint x="1460" y="570" as="targetPoint" />
          </mxGeometry>
        </mxCell>
        <mxCell id="La-qvgu0-vlTwH9IHwVq-129" value="" style="endArrow=none;html=1;rounded=0;entryX=0.5;entryY=1;entryDx=0;entryDy=0;exitX=0;exitY=0.5;exitDx=0;exitDy=0;" edge="1" parent="1" source="La-qvgu0-vlTwH9IHwVq-114" target="La-qvgu0-vlTwH9IHwVq-44">
          <mxGeometry width="50" height="50" relative="1" as="geometry">
            <mxPoint x="1251" y="620" as="sourcePoint" />
            <mxPoint x="1261" y="564" as="targetPoint" />
          </mxGeometry>
        </mxCell>
        <mxCell id="La-qvgu0-vlTwH9IHwVq-130" value="" style="endArrow=none;html=1;rounded=0;entryX=0.384;entryY=1.013;entryDx=0;entryDy=0;exitX=0;exitY=0.5;exitDx=0;exitDy=0;entryPerimeter=0;" edge="1" parent="1" source="La-qvgu0-vlTwH9IHwVq-113" target="La-qvgu0-vlTwH9IHwVq-43">
          <mxGeometry width="50" height="50" relative="1" as="geometry">
            <mxPoint x="1135" y="710" as="sourcePoint" />
            <mxPoint x="1135" y="670" as="targetPoint" />
          </mxGeometry>
        </mxCell>
        <mxCell id="La-qvgu0-vlTwH9IHwVq-131" value="" style="endArrow=none;html=1;rounded=0;entryX=0.5;entryY=1;entryDx=0;entryDy=0;exitX=0;exitY=0.5;exitDx=0;exitDy=0;" edge="1" parent="1" source="La-qvgu0-vlTwH9IHwVq-112" target="La-qvgu0-vlTwH9IHwVq-42">
          <mxGeometry width="50" height="50" relative="1" as="geometry">
            <mxPoint x="1030" y="720" as="sourcePoint" />
            <mxPoint x="1025" y="671" as="targetPoint" />
          </mxGeometry>
        </mxCell>
        <mxCell id="La-qvgu0-vlTwH9IHwVq-132" value="" style="endArrow=none;html=1;rounded=0;entryX=0.5;entryY=1;entryDx=0;entryDy=0;exitX=0;exitY=0.5;exitDx=0;exitDy=0;" edge="1" parent="1" source="La-qvgu0-vlTwH9IHwVq-110" target="La-qvgu0-vlTwH9IHwVq-35">
          <mxGeometry width="50" height="50" relative="1" as="geometry">
            <mxPoint x="945" y="720" as="sourcePoint" />
            <mxPoint x="940" y="670" as="targetPoint" />
          </mxGeometry>
        </mxCell>
        <mxCell id="La-qvgu0-vlTwH9IHwVq-133" value="" style="endArrow=none;html=1;rounded=0;entryX=0.285;entryY=0.905;entryDx=0;entryDy=0;exitX=0;exitY=0.25;exitDx=0;exitDy=0;entryPerimeter=0;" edge="1" parent="1" source="La-qvgu0-vlTwH9IHwVq-111" target="La-qvgu0-vlTwH9IHwVq-37">
          <mxGeometry width="50" height="50" relative="1" as="geometry">
            <mxPoint x="820" y="610" as="sourcePoint" />
            <mxPoint x="820" y="562" as="targetPoint" />
          </mxGeometry>
        </mxCell>
        <mxCell id="La-qvgu0-vlTwH9IHwVq-134" value="" style="rounded=0;whiteSpace=wrap;html=1;direction=south;" vertex="1" parent="1">
          <mxGeometry x="1075" y="485" width="40" height="80" as="geometry" />
        </mxCell>
        <mxCell id="La-qvgu0-vlTwH9IHwVq-135" value="" style="rounded=0;whiteSpace=wrap;html=1;direction=south;" vertex="1" parent="1">
          <mxGeometry x="1020" y="471.1" width="30" height="38.9" as="geometry" />
        </mxCell>
        <mxCell id="La-qvgu0-vlTwH9IHwVq-136" value="" style="endArrow=none;html=1;rounded=0;entryX=0.5;entryY=1;entryDx=0;entryDy=0;exitX=0.25;exitY=1;exitDx=0;exitDy=0;" edge="1" parent="1" source="La-qvgu0-vlTwH9IHwVq-135" target="La-qvgu0-vlTwH9IHwVq-81">
          <mxGeometry width="50" height="50" relative="1" as="geometry">
            <mxPoint x="880" y="610" as="sourcePoint" />
            <mxPoint x="896" y="558" as="targetPoint" />
          </mxGeometry>
        </mxCell>
        <mxCell id="La-qvgu0-vlTwH9IHwVq-137" value="" style="endArrow=none;html=1;rounded=0;entryX=0.5;entryY=1;entryDx=0;entryDy=0;exitX=0;exitY=0.5;exitDx=0;exitDy=0;" edge="1" parent="1" source="La-qvgu0-vlTwH9IHwVq-134" target="La-qvgu0-vlTwH9IHwVq-82">
          <mxGeometry width="50" height="50" relative="1" as="geometry">
            <mxPoint x="890" y="620" as="sourcePoint" />
            <mxPoint x="906" y="568" as="targetPoint" />
          </mxGeometry>
        </mxCell>
        <mxCell id="La-qvgu0-vlTwH9IHwVq-138" value="" style="endArrow=none;html=1;rounded=0;entryX=0.5;entryY=1;entryDx=0;entryDy=0;exitX=0;exitY=0.5;exitDx=0;exitDy=0;" edge="1" parent="1" source="La-qvgu0-vlTwH9IHwVq-109" target="La-qvgu0-vlTwH9IHwVq-16">
          <mxGeometry width="50" height="50" relative="1" as="geometry">
            <mxPoint x="820" y="610" as="sourcePoint" />
            <mxPoint x="820" y="562" as="targetPoint" />
          </mxGeometry>
        </mxCell>
        <mxCell id="La-qvgu0-vlTwH9IHwVq-139" value="" style="endArrow=none;html=1;rounded=0;entryX=0.5;entryY=1;entryDx=0;entryDy=0;exitX=0;exitY=0.5;exitDx=0;exitDy=0;" edge="1" parent="1" source="La-qvgu0-vlTwH9IHwVq-108" target="La-qvgu0-vlTwH9IHwVq-15">
          <mxGeometry width="50" height="50" relative="1" as="geometry">
            <mxPoint x="650" y="630" as="sourcePoint" />
            <mxPoint x="645" y="583" as="targetPoint" />
          </mxGeometry>
        </mxCell>
        <mxCell id="La-qvgu0-vlTwH9IHwVq-140" value="" style="endArrow=none;html=1;rounded=0;entryX=0.5;entryY=1;entryDx=0;entryDy=0;exitX=0;exitY=0.5;exitDx=0;exitDy=0;" edge="1" parent="1" source="La-qvgu0-vlTwH9IHwVq-107" target="La-qvgu0-vlTwH9IHwVq-14">
          <mxGeometry width="50" height="50" relative="1" as="geometry">
            <mxPoint x="660" y="640" as="sourcePoint" />
            <mxPoint x="655" y="593" as="targetPoint" />
          </mxGeometry>
        </mxCell>
        <mxCell id="La-qvgu0-vlTwH9IHwVq-141" value="" style="endArrow=none;html=1;rounded=0;entryX=0.5;entryY=1;entryDx=0;entryDy=0;exitX=0;exitY=0.5;exitDx=0;exitDy=0;" edge="1" parent="1" source="La-qvgu0-vlTwH9IHwVq-105" target="La-qvgu0-vlTwH9IHwVq-2">
          <mxGeometry width="50" height="50" relative="1" as="geometry">
            <mxPoint x="465" y="630" as="sourcePoint" />
            <mxPoint x="465" y="565" as="targetPoint" />
          </mxGeometry>
        </mxCell>
        <mxCell id="La-qvgu0-vlTwH9IHwVq-142" value="" style="endArrow=none;html=1;rounded=0;entryX=0.5;entryY=1;entryDx=0;entryDy=0;exitX=0;exitY=0.5;exitDx=0;exitDy=0;" edge="1" parent="1" source="La-qvgu0-vlTwH9IHwVq-106" target="La-qvgu0-vlTwH9IHwVq-4">
          <mxGeometry width="50" height="50" relative="1" as="geometry">
            <mxPoint x="475" y="640" as="sourcePoint" />
            <mxPoint x="475" y="575" as="targetPoint" />
          </mxGeometry>
        </mxCell>
        <mxCell id="La-qvgu0-vlTwH9IHwVq-143" value="" style="endArrow=none;html=1;rounded=0;entryX=0.5;entryY=1;entryDx=0;entryDy=0;exitX=0;exitY=0.5;exitDx=0;exitDy=0;" edge="1" parent="1" source="La-qvgu0-vlTwH9IHwVq-104" target="La-qvgu0-vlTwH9IHwVq-6">
          <mxGeometry width="50" height="50" relative="1" as="geometry">
            <mxPoint x="260" y="610" as="sourcePoint" />
            <mxPoint x="260" y="568" as="targetPoint" />
          </mxGeometry>
        </mxCell>
        <mxCell id="La-qvgu0-vlTwH9IHwVq-144" value="" style="endArrow=none;html=1;rounded=0;entryX=0.5;entryY=1;entryDx=0;entryDy=0;exitX=0;exitY=0.5;exitDx=0;exitDy=0;" edge="1" parent="1" source="La-qvgu0-vlTwH9IHwVq-103" target="La-qvgu0-vlTwH9IHwVq-7">
          <mxGeometry width="50" height="50" relative="1" as="geometry">
            <mxPoint x="194" y="680" as="sourcePoint" />
            <mxPoint x="194" y="635" as="targetPoint" />
          </mxGeometry>
        </mxCell>
        <mxCell id="La-qvgu0-vlTwH9IHwVq-145" value="" style="endArrow=none;html=1;rounded=0;entryX=0.5;entryY=1;entryDx=0;entryDy=0;exitX=0;exitY=0.5;exitDx=0;exitDy=0;" edge="1" parent="1" source="La-qvgu0-vlTwH9IHwVq-102" target="La-qvgu0-vlTwH9IHwVq-8">
          <mxGeometry width="50" height="50" relative="1" as="geometry">
            <mxPoint x="120" y="680" as="sourcePoint" />
            <mxPoint x="119" y="638" as="targetPoint" />
          </mxGeometry>
        </mxCell>
      </root>
    </mxGraphModel>
  </diagram>
</mxfile>
